<?xml version="1.0" encoding="utf-8"?>
<!-- Generator: Adobe Illustrator 19.0.0, SVG Export Plug-In . SVG Version: 6.00 Build 0)  -->
<svg version="1.1" id="Capa_1" xmlns="http://www.w3.org/2000/svg" xmlns:xlink="http://www.w3.org/1999/xlink" x="0px" y="0px"
	 viewBox="-223 25 512 512" style="enable-background:new -223 25 512 512;" xml:space="preserve">
<style type="text/css">
	.st0{fill:#FFFFFF;}
</style>
<path class="st0" d="M289,281C289,139.6,174.4,25,33,25s-256,114.6-256,256s114.6,256,256,256c1.5,0,3,0,4.5-0.1V337.7h-55v-64.1h55
	v-47.2c0-54.7,33.4-84.5,82.2-84.5c23.4,0,43.5,1.7,49.3,2.5v57.2h-33.6c-26.5,0-31.7,12.6-31.7,31.1v40.8h63.5l-8.3,64.1h-55.2
	v189.5C210.7,496.4,289,397.9,289,281z"/>
</svg>
