<?xml version="1.0" encoding="utf-8"?>
<!-- Generator: Adobe Illustrator 19.0.0, SVG Export Plug-In . SVG Version: 6.00 Build 0)  -->
<svg version="1.1"
	 id="svg2" inkscape:version="0.46" inkscape:output_extension="org.inkscape.output.svg.inkscape" sodipodi:version="0.32" sodipodi:docname="line_rough.svg" xmlns:sodipodi="http://sodipodi.sourceforge.net/DTD/sodipodi-0.dtd" xmlns:dc="http://purl.org/dc/elements/1.1/" xmlns:ns1="http://sozi.baierouge.fr" xmlns:rdf="http://www.w3.org/1999/02/22-rdf-syntax-ns#" xmlns:cc="http://creativecommons.org/ns#" xmlns:svg="http://www.w3.org/2000/svg" xmlns:inkscape="http://www.inkscape.org/namespaces/inkscape"
	 xmlns="http://www.w3.org/2000/svg" xmlns:xlink="http://www.w3.org/1999/xlink" x="0px" y="0px" viewBox="120 276.4 1200 8.6"
	 style="enable-background:new 120 276.4 1200 8.6;" xml:space="preserve">
<style type="text/css">
	.st0{fill:#FFE06C;}
</style>
<sodipodi:namedview  inkscape:window-width="1680" inkscape:pageopacity="0.0" inkscape:window-height="1003" inkscape:current-layer="svg2" inkscape:window-x="-4" inkscape:pageshadow="2" inkscape:window-y="-4" id="base" bordercolor="#666666" inkscape:zoom="1.3277452" objecttolerance="10.0" pagecolor="#ffffff" guidetolerance="10.0" inkscape:cy="12.5" inkscape:cx="538.52704" borderopacity="1.0" gridtolerance="10.0" showgrid="false">
	</sodipodi:namedview>
<g id="g2394" transform="matrix(1.0094 0 0 1.0094 0 -9.5705)">
	<path id="path2398" class="st0" d="M118.9,287.8v-4.1l133.3,0.7c171.2,0.9,420.6,0.9,577.8,0c99.2-0.6,382-1,395.8-0.7
		c3.5,0.1,4.3,1.5,1.4,2.5c-1.8,0.7-59.5,1.2-250.7,2.1c-64.3,0.3-168.5,0.8-231.5,1.1c-130,0.6-148,0.7-290.9,0.5
		c-56.9-0.1-103.6,0.1-103.8,0.3c-0.2,0.2-1.7,0.1-3.2-0.4c-1.5-0.4-28.1-0.9-59.2-1c-31-0.1-80-0.3-108.9-0.4
		c-56.2-0.3-59.1-0.2-58.3,2c0.3,0.8,0,1.4-0.6,1.4C119.4,291.8,118.9,290.1,118.9,287.8L118.9,287.8z M1267.6,287.2
		c-0.1-0.1-3.4-0.3-7.2-0.4c-8.1-0.3-11.5-0.8-11.5-1.9c0-0.4,1-0.8,2.2-0.8c1.3,0,14.3-0.2,29-0.5c18.3-0.4,27-0.2,27.4,0.5
		c1.2,2-1.9,2.6-13,2.8c-6.1,0.1-14.6,0.3-18.9,0.3C1271.3,287.3,1267.7,287.2,1267.6,287.2z M1240.4,285.9
		c-2.4-0.6-2.6-0.9-1.3-1.5c2.2-1,6.4-0.3,6,0.9C1244.8,286.6,1244,286.7,1240.4,285.9z"/>
	<path id="path2396" class="st0" d="M461.7,289.3c-0.2-0.2-3.5-0.5-7.1-0.7c-6.7-0.2-8.8-1.3-4.5-2.3c1.9-0.4,68.3-0.1,71.2,0.3
		c0.6,0.1,0.5,0.6-0.1,1.2c-0.7,0.7-7.5,1-18.5,0.9c-22.9-0.2-39.2,0.1-40,0.6C462.5,289.6,462,289.6,461.7,289.3z M557.7,289.3
		c-0.3-0.3-3.8-0.6-7.8-0.6c-5.2,0-7-0.3-6.8-1.2c0.4-1.1,5-1.3,25.7-0.8c1.9,0,15-0.1,29-0.3c14.8-0.2,26,0,26.7,0.5
		c0.7,0.6,1.4,0.6,1.7,0c0.7-1.1,31.1-1,32.2,0.1c0.4,0.4,1.2,0.4,1.8,0c1.5-0.9,19.8-1.3,31.4-0.6c16.9,1,9.6,2.2-13.7,2.1
		c-12.6,0-23.4,0.3-24,0.7c-0.6,0.4-1.6,0.4-2.1,0c-0.6-0.4-8.6-0.6-17.8-0.5c-25.9,0.2-48.5,0.2-50.7,0c-1.1-0.1-7.2,0.1-13.6,0.4
		C563.5,289.6,558,289.6,557.7,289.3L557.7,289.3z M282.9,288c-15.3-1.4-1.6-2.6,28-2.4c7.4,0.1,37.9,0.2,67.8,0.4
		c49.2,0.2,59.9,0.7,53,2.3C429.3,288.9,289.1,288.6,282.9,288L282.9,288z M436.4,287.9c-0.3-0.5-0.2-1.2,0.2-1.4
		c1.1-0.7,10.2-0.3,10.2,0.5C446.9,288.8,437.5,289.6,436.4,287.9z M522.9,287.5c0-1.1,1.9-1.4,9.5-1.3c12.3,0.1,12,2-0.3,2.4
		C524.6,288.9,522.9,288.7,522.9,287.5z M703.9,287.5c0-2.1,68.3-2.7,70.3-0.7c1.9,1.9-39.8,2.9-46,1.1c-1.6-0.4-6.2-0.4-10.3,0
		c-4.4,0.5-7.7,0.4-8-0.1c-0.3-0.5-1.2-0.5-2,0C705.7,289.2,703.9,289,703.9,287.5z M776.9,287.1c0-0.9,3.7-1.3,14.8-1.4
		c8.1-0.1,22-0.3,30.8-0.5c17.8-0.4,28.8,0.3,26.3,1.7c-0.9,0.5-10,0.9-20.4,1c-10.4,0-19.8,0.1-20.9,0.1
		C783.2,288.4,776.9,288.2,776.9,287.1L776.9,287.1z M118.9,286.3c0-1.1,3.7-1.4,19.8-1.3c20.9,0,28.1,0.7,20.8,2
		C151.4,288.3,118.9,287.8,118.9,286.3z M164.5,287.2c-1.5-1.5-0.4-2.3,3.1-2.3c4.9,0,7.4,1.5,4.1,2.3
		C168.6,288,165.4,288,164.5,287.2z M176.4,286.9c-4.5-1.6,2.5-1.9,48-1.9c47.3,0,52.5,0.2,52.5,1.9
		C276.9,287.9,179.3,287.9,176.4,286.9L176.4,286.9z M853.3,286.7c-0.7-1.2,6.1-1.6,22.1-1.4c18.6,0.3,17.5,0.2,17.5,1.4
		C892.9,287.7,853.9,287.7,853.3,286.7z M894.6,286c-1-1.2,0.7-1.3,10.8-1.1c14.4,0.3,19.1,0.9,17.3,2.1
		C920.4,288.4,896,287.6,894.6,286z M927.1,287.2c-4.1-1.6,1.2-2.2,20.5-2.3c12,0,32.1-0.1,44.8-0.2c12.7-0.1,29.1,0,36.5,0
		c7.4,0.1,23.1,0,34.8-0.1c11.7-0.1,21.6,0.1,21.8,0.5c0.3,0.4,0.9,0.5,1.5,0.2c1.9-1.2,122.9-1.2,122.6,0
		c-0.3,1-50.6,1.7-123.2,1.6c-12.1,0-22.9,0-24,0c-1.1,0-7.8,0.1-15,0.1c-7.2,0.1-17.3,0.1-22.5,0.1c-5.2,0-29.1,0.1-53,0.3
		S927.8,287.4,927.1,287.2L927.1,287.2z M1262.4,285.7c-4.4-0.5-4.6-0.6-1.5-0.9c11.3-1,20-0.8,20,0.3
		C1280.9,286.4,1271.1,286.8,1262.4,285.7z M1211.9,285.4c0-0.8,6.1-1.2,6.6-0.4c0.3,0.5-1.1,0.8-3,0.8
		C1213.5,285.8,1211.9,285.7,1211.9,285.4z M1219.9,284.8c0-0.6,0.9-1,1.9-1c1.1,0,2.3,0.4,2.6,1c0.4,0.6-0.5,1-1.9,1
		S1219.9,285.4,1219.9,284.8z M1284.2,285.2c1-1,11.6-1.3,12.3-0.3c0.3,0.5-2.4,0.9-6.2,0.9C1286.6,285.8,1283.8,285.5,1284.2,285.2
		L1284.2,285.2z M1301.9,284.8c0-0.6,0.9-1,2.1-1c1.1,0,1.7,0.4,1.4,1c-0.3,0.5-1.3,1-2.1,1S1301.9,285.4,1301.9,284.8z"/>
</g>
</svg>
