<?xml version="1.0" encoding="utf-8"?>
<!-- Generator: Adobe Illustrator 19.0.0, SVG Export Plug-In . SVG Version: 6.00 Build 0)  -->
<svg version="1.1" id="Layer_1" xmlns="http://www.w3.org/2000/svg" xmlns:xlink="http://www.w3.org/1999/xlink" x="0px" y="0px"
	 viewBox="-138 -61 682 682" style="enable-background:new -138 -61 682 682;" xml:space="preserve">
<style type="text/css">
	.st0{fill:#FFFFFF;}
</style>
<path class="st0" d="M528.7,116.6c-7.8-29.1-30.8-52-59.9-59.9C415.6,42.2,203,42.2,203,42.2s-212.6,0-265.8,14
	c-28.5,7.8-52,31.3-59.9,60.4c-14,53.2-14,163.4-14,163.4s0,110.8,14,163.4c7.8,29.1,30.8,52,59.9,59.9
	C-9.1,517.8,203,517.8,203,517.8s212.6,0,265.8-14c29.1-7.8,52-30.8,59.9-59.9c14-53.2,14-163.4,14-163.4S543.2,169.8,528.7,116.6z
	 M135.3,381.8V178.2L312.1,280L135.3,381.8z"/>
</svg>
